<?xml version="1.0" standalone="no"?>
<!DOCTYPE svg PUBLIC "-//W3C//DTD SVG 20010904//EN"
 "http://www.w3.org/TR/2001/REC-SVG-20010904/DTD/svg10.dtd">
<svg version="1.0" xmlns="http://www.w3.org/2000/svg"
 width="1500.000000pt" height="1500.000000pt" viewBox="0 0 1500.000000 1500.000000"
 preserveAspectRatio="xMidYMid meet">
<metadata>
Created by potrace 1.11, written by Peter Selinger 2001-2013
</metadata>
<g transform="translate(0.000000,1500.000000) scale(0.100000,-0.100000)"
fill="#000000" stroke="none">
<path d="M0 7500 l0 -7500 7500 0 7500 0 0 7500 0 7500 -7500 0 -7500 0 0
-7500z m11620 3361 c370 -65 672 -221 926 -476 369 -373 615 -936 713 -1635
81 -575 76 -1253 -15 -1810 -109 -673 -353 -1198 -721 -1551 -294 -280 -654
-438 -1097 -480 -167 -15 -389 -7 -529 21 -432 85 -804 366 -1091 824 l-56 89
0 -1481 0 -1482 -745 0 -745 0 0 3935 0 3935 745 0 745 0 0 -422 0 -423 53
100 c264 500 671 794 1205 870 141 21 462 13 612 -14z m-9148 -123 c3 -7 155
-984 339 -2170 184 -1186 337 -2154 340 -2150 3 4 140 635 303 1402 164 767
300 1405 303 1418 l5 22 603 0 c566 0 604 -1 609 -17 3 -10 138 -652 301
-1428 163 -775 298 -1412 301 -1414 2 -2 4 2 4 9 0 13 648 4139 671 4278 l11
62 619 0 c483 0 619 -3 619 -12 0 -7 -36 -211 -80 -453 -44 -242 -273 -1509
-510 -2815 -236 -1306 -432 -2385 -435 -2398 l-5 -22 -708 0 -707 0 -345 1475
c-189 811 -345 1473 -347 1472 -1 -2 -153 -655 -338 -1452 -185 -798 -338
-1460 -342 -1472 l-5 -23 -709 0 c-390 0 -709 2 -709 5 0 2 -92 512 -204 1132
-113 620 -343 1889 -511 2818 -168 930 -308 1702 -311 1718 l-6 27 620 0 c487
0 621 -3 624 -12z"/>
<path d="M10663 9660 c-451 -66 -768 -497 -873 -1187 -53 -352 -53 -784 0
-1136 105 -693 423 -1124 876 -1187 260 -36 498 37 687 209 176 162 331 474
401 807 52 248 61 362 61 739 0 377 -9 491 -61 739 -70 333 -225 645 -401 807
-187 171 -435 246 -690 209z"/>
</g>
</svg>
